# xmcd
#
# Track frame offsets: 
#        150
#        14163
#        26575
#        41848
#        52138
#        63793
#        77128
#        97168
#        108640
#        120830
#        137313
#        153315
#        164685
#        176078
#        193445
#        206385
#        217258
#        229618
#        240943
#        251768
#
# Disc length: 3521 seconds
#
# Revision: 2
# Processed by: cddbd v1.5.2PL0 Copyright (c) Steve Scherf et al.
# Submitted via: ExactAudioCopy v0.95b4
#
DISCID=210dbf14
DTITLE=Hooker, John Lee  - The Vee-Jay Years - CD 4
DYEAR=1900
DGENRE=Blues
TTITLE0=The hobo
TTITLE1=Maudie
TTITLE2=Tupelo
TTITLE3=Want ad blues
TTITLE4=Will the circle be unbroken
TTITLE5=I'm goin' upstairs
TTITLE6=I left my baby
TTITLE7=Hard headed woman
TTITLE8=I'm mad again
TTITLE9=Process
TTITLE10=Thelma
TTITLE11=What do you say
TTITLE12=Boom boom
TTITLE13=Blues before sunrise
TTITLE14=I lost a good girl
TTITLE15=She's mine
TTITLE16=I got a letter this morning
TTITLE17=A new leaf
TTITLE18=Let's make it
TTITLE19=Drug store woman
EXTD=
EXTT0=
EXTT1=
EXTT2=
EXTT3=
EXTT4=
EXTT5=
EXTT6=
EXTT7=
EXTT8=
EXTT9=
EXTT10=
EXTT11=
EXTT12=
EXTT13=
EXTT14=
EXTT15=
EXTT16=
EXTT17=
EXTT18=
EXTT19=
PLAYORDER=
